{
  "accessors": [
    {
      "bufferView": 2,
      "componentType": 5126,
      "count": 264,
      "max": [
        2373.06396484375,
        169.6879425048828,
        2373.063720703125
      ],
      "min": [
        -2373.063232421875,
        -169.68789672851563,
        -2373.06396484375
      ],
      "type": "VEC3"
    },
    {
      "bufferView": 2,
      "byteOffset": 3168,
      "componentType": 5126,
      "count": 264,
      "max": [
        0.9848086833953857,
        8.216122751036892e-07,
        0.9848079085350037
      ],
      "min": [
        -1.0,
        -1.0,
        -1.0
      ],
      "type": "VEC3"
    },
    {
      "bufferView": 1,
      "componentType": 5126,
      "count": 264,
      "max": [
        1.0,
        1.0
      ],
      "min": [
        0.0,
        0.0
      ],
      "type": "VEC2"
    },
    {
      "bufferView": 0,
      "componentType": 5125,
      "count": 300,
      "type": "SCALAR"
    },
    {
      "bufferView": 2,
      "byteOffset": 6336,
      "componentType": 5126,
      "count": 472,
      "max": [
        63.221221923828125,
        62.12834548950195,
        28.209918975830078
      ],
      "min": [
        -60.79179763793945,
        -61.88467025756836,
        -26.278162002563477
      ],
      "type": "VEC3"
    },
    {
      "bufferView": 2,
      "byteOffset": 12000,
      "componentType": 5126,
      "count": 472,
      "max": [
        0.9999605417251587,
        0.9999605417251587,
        0.8614340424537659
      ],
      "min": [
        -0.9999605417251587,
        -0.9999605417251587,
        -0.8614340424537659
      ],
      "type": "VEC3"
    },
    {
      "bufferView": 3,
      "componentType": 5126,
      "count": 472,
      "max": [
        0.9999991655349731,
        1.0,
        0.5059552788734436,
        1.0
      ],
      "min": [
        -0.9999985098838806,
        -0.999990701675415,
        -0.8046067357063293,
        1.0
      ],
      "type": "VEC4"
    },
    {
      "bufferView": 1,
      "byteOffset": 2112,
      "componentType": 5126,
      "count": 472,
      "max": [
        1.0,
        1.0
      ],
      "min": [
        0.0,
        0.0
      ],
      "type": "VEC2"
    },
    {
      "bufferView": 0,
      "byteOffset": 1200,
      "componentType": 5125,
      "count": 1368,
      "type": "SCALAR"
    },
    {
      "bufferView": 2,
      "byteOffset": 17664,
      "componentType": 5126,
      "count": 538,
      "max": [
        2514.178466796875,
        78.8956527709961,
        561.412353515625
      ],
      "min": [
        -2514.178955078125,
        -200.10879516601563,
        -1561.6583251953125
      ],
      "type": "VEC3"
    },
    {
      "bufferView": 2,
      "byteOffset": 24120,
      "componentType": 5126,
      "count": 538,
      "max": [
        1.0,
        1.0,
        1.0
      ],
      "min": [
        -1.0,
        -1.0,
        -1.0
      ],
      "type": "VEC3"
    },
    {
      "bufferView": 3,
      "byteOffset": 7552,
      "componentType": 5126,
      "count": 538,
      "max": [
        1.0,
        0.9993172883987427,
        1.0,
        1.0
      ],
      "min": [
        -1.0,
        -0.1822132021188736,
        -1.0,
        1.0
      ],
      "type": "VEC4"
    },
    {
      "bufferView": 1,
      "byteOffset": 5888,
      "componentType": 5126,
      "count": 538,
      "max": [
        0.9999999403953552,
        1.0000001192092896
      ],
      "min": [
        0.0,
        0.0
      ],
      "type": "VEC2"
    },
    {
      "bufferView": 0,
      "byteOffset": 6672,
      "componentType": 5125,
      "count": 576,
      "type": "SCALAR"
    },
    {
      "bufferView": 2,
      "byteOffset": 30576,
      "componentType": 5126,
      "count": 508,
      "max": [
        99.57342529296875,
        1083.3336181640625,
        100.0
      ],
      "min": [
        -99.57341766357422,
        -136.59561157226563,
        -100.0
      ],
      "type": "VEC3"
    },
    {
      "bufferView": 2,
      "byteOffset": 36672,
      "componentType": 5126,
      "count": 508,
      "max": [
        0.9957351088523865,
        0.7284918427467346,
        1.0
      ],
      "min": [
        -0.9957351088523865,
        -1.0,
        -1.0
      ],
      "type": "VEC3"
    },
    {
      "bufferView": 3,
      "byteOffset": 16160,
      "componentType": 5126,
      "count": 508,
      "max": [
        0.999998927116394,
        0.7647537589073181,
        0.9979988932609558,
        1.0
      ],
      "min": [
        -0.9999992251396179,
        -0.7647656202316284,
        -1.0,
        1.0
      ],
      "type": "VEC4"
    },
    {
      "bufferView": 1,
      "byteOffset": 10192,
      "componentType": 5126,
      "count": 508,
      "max": [
        1.0,
        0.9999999403953552
      ],
      "min": [
        0.0,
        0.0
      ],
      "type": "VEC2"
    },
    {
      "bufferView": 0,
      "byteOffset": 8976,
      "componentType": 5125,
      "count": 1503,
      "type": "SCALAR"
    }
  ],
  "asset": {
    "extras": {
      "author": "Gunnar Correa (https://sketchfab.com/gunnarcorrea)",
      "license": "CC-BY-4.0 (http://creativecommons.org/licenses/by/4.0/)",
      "source": "https://sketchfab.com/3d-models/wood-luminaire-b1cde89caea2432fb8231816f4b6a4b3",
      "title": "Wood Luminaire"
    },
    "generator": "Sketchfab-12.68.0",
    "version": "2.0"
  },
  "bufferViews": [
    {
      "buffer": 0,
      "byteLength": 14988,
      "name": "floatBufferViews",
      "target": 34963
    },
    {
      "buffer": 0,
      "byteLength": 14256,
      "byteOffset": 14988,
      "byteStride": 8,
      "name": "floatBufferViews",
      "target": 34962
    },
    {
      "buffer": 0,
      "byteLength": 42768,
      "byteOffset": 29244,
      "byteStride": 12,
      "name": "floatBufferViews",
      "target": 34962
    },
    {
      "buffer": 0,
      "byteLength": 24288,
      "byteOffset": 72012,
      "byteStride": 16,
      "name": "floatBufferViews",
      "target": 34962
    }
  ],
  "buffers": [
    {
      "byteLength": 96300,
      "uri": "sceneTeto.bin"
    }
  ],
  "images": [
    {
      "uri": "../assets/textures/Suporte_baseColor.png"
    },
    {
      "uri": "../assets/textures/Suporte_metallicRoughness.png"
    },
    {
      "uri": "../assets/textures/Suporte_normal.png"
    },
    {
      "uri": "../assets/textures/MadeiraBase_baseColor.png"
    },
    {
      "uri": "../assets/textures/MadeiraBase_metallicRoughness.png"
    },
    {
      "uri": "../assets/textures/MadeiraBase_normal.png"
    },
    {
      "uri": "../assets/textures/Base_baseColor.png"
    },
    {
      "uri": "../assets/textures/Base_metallicRoughness.png"
    },
    {
      "uri": "../assets/textures/Base_normal.png"
    }
  ],
  "materials": [
    {
      "doubleSided": true,
      "emissiveFactor": [
        0.8,
        0.8,
        0.8
      ],
      "name": "Emission",
      "pbrMetallicRoughness": {
        "baseColorFactor": [
          0.8,
          0.8,
          0.8,
          1.0
        ],
        "metallicFactor": 0.0,
        "roughnessFactor": 0.8239417257
      }
    },
    {
      "doubleSided": true,
      "name": "Suporte",
      "normalTexture": {
        "index": 2
      },
      "pbrMetallicRoughness": {
        "baseColorTexture": {
          "index": 0
        },
        "metallicRoughnessTexture": {
          "index": 1
        },
        "roughnessFactor": 0.3107575850053267
      }
    },
    {
      "doubleSided": true,
      "name": "MadeiraBase",
      "normalTexture": {
        "index": 5
      },
      "pbrMetallicRoughness": {
        "baseColorTexture": {
          "index": 3
        },
        "metallicRoughnessTexture": {
          "index": 4
        }
      }
    },
    {
      "doubleSided": true,
      "name": "Base",
      "normalTexture": {
        "index": 8
      },
      "pbrMetallicRoughness": {
        "baseColorTexture": {
          "index": 6
        },
        "metallicRoughnessTexture": {
          "index": 7
        }
      }
    }
  ],
  "meshes": [
    {
      "name": "Copos_Emission_0",
      "primitives": [
        {
          "attributes": {
            "NORMAL": 1,
            "POSITION": 0,
            "TEXCOORD_0": 2
          },
          "indices": 3,
          "material": 0,
          "mode": 4
        }
      ]
    },
    {
      "name": "Suporte_Suporte_0",
      "primitives": [
        {
          "attributes": {
            "NORMAL": 5,
            "POSITION": 4,
            "TANGENT": 6,
            "TEXCOORD_0": 7
          },
          "indices": 8,
          "material": 1,
          "mode": 4
        }
      ]
    },
    {
      "name": "MadeirasBase_MadeiraBase_0",
      "primitives": [
        {
          "attributes": {
            "NORMAL": 10,
            "POSITION": 9,
            "TANGENT": 11,
            "TEXCOORD_0": 12
          },
          "indices": 13,
          "material": 2,
          "mode": 4
        }
      ]
    },
    {
      "name": "Base_Base_0",
      "primitives": [
        {
          "attributes": {
            "NORMAL": 15,
            "POSITION": 14,
            "TANGENT": 16,
            "TEXCOORD_0": 17
          },
          "indices": 18,
          "material": 3,
          "mode": 4
        }
      ]
    }
  ],
  "nodes": [
    {
      "children": [
        1
      ],
      "matrix": [
        1.0,
        0.0,
        0.0,
        0.0,
        0.0,
        2.220446049250313e-16,
        -1.0,
        0.0,
        0.0,
        1.0,
        2.220446049250313e-16,
        0.0,
        0.0,
        0.0,
        0.0,
        1.0
      ],
      "name": "Sketchfab_model"
    },
    {
      "children": [
        2
      ],
      "matrix": [
        1.0,
        0.0,
        0.0,
        0.0,
        0.0,
        0.0,
        1.0,
        0.0,
        0.0,
        -1.0,
        0.0,
        0.0,
        0.0,
        0.0,
        0.0,
        1.0
      ],
      "name": "71aebe778c1e4499bcd426717231fdd8.fbx"
    },
    {
      "children": [
        3,
        5,
        7,
        9
      ],
      "name": "RootNode"
    },
    {
      "children": [
        4
      ],
      "matrix": [
        0.024880774319171906,
        0.0,
        0.0,
        0.0,
        0.0,
        0.031740184873342514,
        0.0,
        0.0,
        0.0,
        0.0,
        0.024880774319171906,
        0.0,
        0.11892914772033691,
        -99.56848907470703,
        1.5761091709136963,
        1.0
      ],
      "name": "Copos"
    },
    {
      "mesh": 0,
      "name": "Copos_Emission_0"
    },
    {
      "children": [
        6
      ],
      "matrix": [
        5.523350576908115e-07,
        1.6653345369377348e-16,
        0.9999999999998475,
        0.0,
        0.9999999999998463,
        -4.371139006309477e-08,
        -5.523350576353003e-07,
        0.0,
        4.371139011860592e-08,
        0.9999999999999989,
        -2.4202861936828413e-14,
        0.0,
        -0.0028961659409105778,
        -76.7410888671875,
        0.36139610409736633,
        1.0
      ],
      "name": "Suporte"
    },
    {
      "mesh": 1,
      "name": "Suporte_Suporte_0"
    },
    {
      "children": [
        8
      ],
      "matrix": [
        -0.018909502774477005,
        -0.0,
        -0.0,
        -0.0,
        -0.0,
        -0.018909502774477005,
        -0.0,
        -0.0,
        -0.0,
        -0.0,
        -0.04478595778346062,
        -0.0,
        -0.2510342597961426,
        -93.6300048828125,
        -22.516254425048828,
        1.0
      ],
      "name": "MadeirasBase"
    },
    {
      "mesh": 2,
      "name": "MadeirasBase_MadeiraBase_0"
    },
    {
      "children": [
        10
      ],
      "matrix": [
        0.5264773964881897,
        0.0,
        0.0,
        0.0,
        0.0,
        0.04117261618375778,
        0.0,
        0.0,
        0.0,
        0.0,
        0.5264773964881897,
        0.0,
        0.0,
        -93.39617919921875,
        0.0,
        1.0
      ],
      "name": "Base"
    },
    {
      "mesh": 3,
      "name": "Base_Base_0"
    }
  ],
  "samplers": [
    {
      "magFilter": 9729,
      "minFilter": 9987,
      "wrapS": 10497,
      "wrapT": 10497
    }
  ],
  "scene": 0,
  "scenes": [
    {
      "name": "Sketchfab_Scene",
      "nodes": [
        0
      ]
    }
  ],
  "textures": [
    {
      "sampler": 0,
      "source": 0
    },
    {
      "sampler": 0,
      "source": 1
    },
    {
      "sampler": 0,
      "source": 2
    },
    {
      "sampler": 0,
      "source": 3
    },
    {
      "sampler": 0,
      "source": 4
    },
    {
      "sampler": 0,
      "source": 5
    },
    {
      "sampler": 0,
      "source": 6
    },
    {
      "sampler": 0,
      "source": 7
    },
    {
      "sampler": 0,
      "source": 8
    }
  ]
}
